# xmcd
#
# Track frame offsets:
#	150
#	12851
#	27702
#	42034
#	57256
#	67883
#	83130
#	92627
#	103217
#	115074
#	131033
#	142016
#	172507
#	188791
#	202168
#	214757
#	230995
#
# Disc length: 3213 seconds
# Revision: 1
# Processed by: cddbd v1.5.2PL0 Copyright (c) Steve Scherf et al.
# Submitted via: dBpowerAMP V12.0
#
DISCID=f10c8b11
DTITLE=The Bopcats - 25 Years of Rock N' Roll
DYEAR=2012
DGENRE=Blues
TTITLE0=I Don't Want to Be Alone
TTITLE1=Dark Train
TTITLE2=Who Drank My Beer
TTITLE3=Broke Down
TTITLE4=All I Need
TTITLE5=Wheels of Mine
TTITLE6=That's Right
TTITLE7=Crazy Li'l Baby
TTITLE8=Red Cadillac
TTITLE9=Ventilator Blues
TTITLE10=Marie Marie
TTITLE11=Sweet Thing
TTITLE12=Life Of Crime
TTITLE13=Jenny Jenny
TTITLE14=Get Rhythm
TTITLE15=On A Roll
TTITLE16=The Race Is On
EXTD=
EXTT0=
EXTT1=
EXTT2=
EXTT3=
EXTT4=
EXTT5=
EXTT6=
EXTT7=
EXTT8=
EXTT9=
EXTT10=
EXTT11=
EXTT12=
EXTT13=
EXTT14=
EXTT15=
EXTT16=
PLAYORDER=
